<mxfile host="app.diagrams.net" agent="Mozilla/5.0 (Windows NT 10.0; Win64; x64) AppleWebKit/537.36 (KHTML, like Gecko) Chrome/118.0.0.0 Safari/537.36" version="28.0.6">
  <diagram name="第 1 页" id="fIbPTTzMzk3BGhx-KFtS">
    <mxGraphModel dx="1025" dy="447" grid="1" gridSize="10" guides="1" tooltips="1" connect="1" arrows="1" fold="1" page="1" pageScale="1" pageWidth="827" pageHeight="1169" math="0" shadow="0">
      <root>
        <mxCell id="0" />
        <mxCell id="1" parent="0" />
        <mxCell id="8vCnK32GKlkzvUL6mrDK-2" style="edgeStyle=orthogonalEdgeStyle;rounded=0;orthogonalLoop=1;jettySize=auto;html=1;exitX=0.5;exitY=1;exitDx=0;exitDy=0;" parent="1" edge="1">
          <mxGeometry relative="1" as="geometry">
            <mxPoint x="255.75" y="60" as="sourcePoint" />
            <mxPoint x="255.75" y="60" as="targetPoint" />
          </mxGeometry>
        </mxCell>
        <mxCell id="AhRn2nykdv37WszCrWZt-1" value="" style="group" vertex="1" connectable="0" parent="1">
          <mxGeometry x="80" y="100" width="316.21000000000004" height="250" as="geometry" />
        </mxCell>
        <mxCell id="AhRn2nykdv37WszCrWZt-2" value="20，40" style="ellipse;whiteSpace=wrap;html=1;aspect=fixed;fillColor=#CCFFCC;" vertex="1" parent="AhRn2nykdv37WszCrWZt-1">
          <mxGeometry x="109.91000000000003" width="80" height="80" as="geometry" />
        </mxCell>
        <mxCell id="AhRn2nykdv37WszCrWZt-3" value="10，15，18" style="ellipse;whiteSpace=wrap;html=1;aspect=fixed;fillColor=#66FF66;" vertex="1" parent="AhRn2nykdv37WszCrWZt-1">
          <mxGeometry y="170" width="80" height="80" as="geometry" />
        </mxCell>
        <mxCell id="AhRn2nykdv37WszCrWZt-4" value="20，25，30" style="ellipse;whiteSpace=wrap;html=1;aspect=fixed;fillColor=#66FF66;" vertex="1" parent="AhRn2nykdv37WszCrWZt-1">
          <mxGeometry x="116.21000000000001" y="170" width="80" height="80" as="geometry" />
        </mxCell>
        <mxCell id="AhRn2nykdv37WszCrWZt-5" value="" style="endArrow=none;html=1;rounded=0;entryX=0.37;entryY=0.982;entryDx=0;entryDy=0;entryPerimeter=0;exitX=0.604;exitY=0.015;exitDx=0;exitDy=0;exitPerimeter=0;" edge="1" parent="AhRn2nykdv37WszCrWZt-1" source="AhRn2nykdv37WszCrWZt-3" target="AhRn2nykdv37WszCrWZt-2">
          <mxGeometry width="50" height="50" relative="1" as="geometry">
            <mxPoint x="28.620000000000005" y="170" as="sourcePoint" />
            <mxPoint x="76.62" y="78" as="targetPoint" />
          </mxGeometry>
        </mxCell>
        <mxCell id="AhRn2nykdv37WszCrWZt-6" value="" style="endArrow=none;html=1;rounded=0;exitX=0.469;exitY=0.002;exitDx=0;exitDy=0;entryX=0.525;entryY=0.995;entryDx=0;entryDy=0;entryPerimeter=0;exitPerimeter=0;" edge="1" parent="AhRn2nykdv37WszCrWZt-1" source="AhRn2nykdv37WszCrWZt-4" target="AhRn2nykdv37WszCrWZt-2">
          <mxGeometry width="50" height="50" relative="1" as="geometry">
            <mxPoint x="148.61999999999998" y="169" as="sourcePoint" />
            <mxPoint x="98.62" y="80" as="targetPoint" />
          </mxGeometry>
        </mxCell>
        <mxCell id="AhRn2nykdv37WszCrWZt-7" value="" style="endArrow=classic;startArrow=classic;html=1;rounded=0;exitX=1;exitY=0.5;exitDx=0;exitDy=0;" edge="1" parent="AhRn2nykdv37WszCrWZt-1">
          <mxGeometry width="50" height="50" relative="1" as="geometry">
            <mxPoint x="80.00000000000091" y="209.83000000000004" as="sourcePoint" />
            <mxPoint x="116.21000000000001" y="210" as="targetPoint" />
          </mxGeometry>
        </mxCell>
        <mxCell id="AhRn2nykdv37WszCrWZt-8" value="40，45，50" style="ellipse;whiteSpace=wrap;html=1;aspect=fixed;fillColor=#66FF66;" vertex="1" parent="AhRn2nykdv37WszCrWZt-1">
          <mxGeometry x="236.21" y="170" width="80" height="80" as="geometry" />
        </mxCell>
        <mxCell id="AhRn2nykdv37WszCrWZt-9" value="" style="endArrow=none;html=1;rounded=0;entryX=0.646;entryY=0.978;entryDx=0;entryDy=0;entryPerimeter=0;exitX=0.378;exitY=0.016;exitDx=0;exitDy=0;exitPerimeter=0;" edge="1" parent="AhRn2nykdv37WszCrWZt-1" source="AhRn2nykdv37WszCrWZt-8" target="AhRn2nykdv37WszCrWZt-2">
          <mxGeometry width="50" height="50" relative="1" as="geometry">
            <mxPoint x="266.21000000000004" y="170" as="sourcePoint" />
            <mxPoint x="169.91" y="60" as="targetPoint" />
          </mxGeometry>
        </mxCell>
        <mxCell id="AhRn2nykdv37WszCrWZt-10" value="" style="endArrow=classic;startArrow=classic;html=1;rounded=0;exitX=1;exitY=0.5;exitDx=0;exitDy=0;entryX=0;entryY=0.5;entryDx=0;entryDy=0;" edge="1" parent="AhRn2nykdv37WszCrWZt-1" target="AhRn2nykdv37WszCrWZt-8">
          <mxGeometry width="50" height="50" relative="1" as="geometry">
            <mxPoint x="196.21" y="209.83000000000004" as="sourcePoint" />
            <mxPoint x="232.41999999999913" y="210" as="targetPoint" />
          </mxGeometry>
        </mxCell>
        <mxCell id="AhRn2nykdv37WszCrWZt-11" value="" style="group" vertex="1" connectable="0" parent="1">
          <mxGeometry x="450" y="100" width="316.21000000000004" height="250" as="geometry" />
        </mxCell>
        <mxCell id="AhRn2nykdv37WszCrWZt-12" value="20，40" style="ellipse;whiteSpace=wrap;html=1;aspect=fixed;fillColor=#FFCCE6;" vertex="1" parent="AhRn2nykdv37WszCrWZt-11">
          <mxGeometry x="109.91000000000003" width="80" height="80" as="geometry" />
        </mxCell>
        <mxCell id="AhRn2nykdv37WszCrWZt-13" value="10，15，18" style="ellipse;whiteSpace=wrap;html=1;aspect=fixed;fillColor=#66FF66;" vertex="1" parent="AhRn2nykdv37WszCrWZt-11">
          <mxGeometry y="170" width="80" height="80" as="geometry" />
        </mxCell>
        <mxCell id="AhRn2nykdv37WszCrWZt-14" value="20，25，30" style="ellipse;whiteSpace=wrap;html=1;aspect=fixed;fillColor=#FFCCE6;" vertex="1" parent="AhRn2nykdv37WszCrWZt-11">
          <mxGeometry x="116.21000000000001" y="170" width="80" height="80" as="geometry" />
        </mxCell>
        <mxCell id="AhRn2nykdv37WszCrWZt-15" value="" style="endArrow=none;html=1;rounded=0;entryX=0.37;entryY=0.982;entryDx=0;entryDy=0;entryPerimeter=0;exitX=0.604;exitY=0.015;exitDx=0;exitDy=0;exitPerimeter=0;" edge="1" parent="AhRn2nykdv37WszCrWZt-11" source="AhRn2nykdv37WszCrWZt-13" target="AhRn2nykdv37WszCrWZt-12">
          <mxGeometry width="50" height="50" relative="1" as="geometry">
            <mxPoint x="28.620000000000005" y="170" as="sourcePoint" />
            <mxPoint x="76.62" y="78" as="targetPoint" />
          </mxGeometry>
        </mxCell>
        <mxCell id="AhRn2nykdv37WszCrWZt-16" value="" style="endArrow=none;html=1;rounded=0;exitX=0.469;exitY=0.002;exitDx=0;exitDy=0;entryX=0.525;entryY=0.995;entryDx=0;entryDy=0;entryPerimeter=0;exitPerimeter=0;" edge="1" parent="AhRn2nykdv37WszCrWZt-11" source="AhRn2nykdv37WszCrWZt-14" target="AhRn2nykdv37WszCrWZt-12">
          <mxGeometry width="50" height="50" relative="1" as="geometry">
            <mxPoint x="148.61999999999998" y="169" as="sourcePoint" />
            <mxPoint x="98.62" y="80" as="targetPoint" />
          </mxGeometry>
        </mxCell>
        <mxCell id="AhRn2nykdv37WszCrWZt-17" value="" style="endArrow=classic;startArrow=classic;html=1;rounded=0;exitX=1;exitY=0.5;exitDx=0;exitDy=0;" edge="1" parent="AhRn2nykdv37WszCrWZt-11">
          <mxGeometry width="50" height="50" relative="1" as="geometry">
            <mxPoint x="80.00000000000091" y="209.83000000000004" as="sourcePoint" />
            <mxPoint x="116.21000000000001" y="210" as="targetPoint" />
          </mxGeometry>
        </mxCell>
        <mxCell id="AhRn2nykdv37WszCrWZt-18" value="40，45，50" style="ellipse;whiteSpace=wrap;html=1;aspect=fixed;fillColor=#66FF66;" vertex="1" parent="AhRn2nykdv37WszCrWZt-11">
          <mxGeometry x="236.21" y="170" width="80" height="80" as="geometry" />
        </mxCell>
        <mxCell id="AhRn2nykdv37WszCrWZt-19" value="" style="endArrow=none;html=1;rounded=0;entryX=0.646;entryY=0.978;entryDx=0;entryDy=0;entryPerimeter=0;exitX=0.378;exitY=0.016;exitDx=0;exitDy=0;exitPerimeter=0;" edge="1" parent="AhRn2nykdv37WszCrWZt-11" source="AhRn2nykdv37WszCrWZt-18" target="AhRn2nykdv37WszCrWZt-12">
          <mxGeometry width="50" height="50" relative="1" as="geometry">
            <mxPoint x="266.21000000000004" y="170" as="sourcePoint" />
            <mxPoint x="169.91" y="60" as="targetPoint" />
          </mxGeometry>
        </mxCell>
        <mxCell id="AhRn2nykdv37WszCrWZt-20" value="" style="endArrow=classic;startArrow=classic;html=1;rounded=0;exitX=1;exitY=0.5;exitDx=0;exitDy=0;entryX=0;entryY=0.5;entryDx=0;entryDy=0;" edge="1" parent="AhRn2nykdv37WszCrWZt-11" target="AhRn2nykdv37WszCrWZt-18">
          <mxGeometry width="50" height="50" relative="1" as="geometry">
            <mxPoint x="196.21" y="209.83000000000004" as="sourcePoint" />
            <mxPoint x="232.41999999999913" y="210" as="targetPoint" />
          </mxGeometry>
        </mxCell>
        <mxCell id="AhRn2nykdv37WszCrWZt-21" value="&lt;b&gt;B+树&lt;/b&gt;" style="text;strokeColor=none;align=center;fillColor=none;html=1;verticalAlign=middle;whiteSpace=wrap;rounded=0;" vertex="1" parent="1">
          <mxGeometry x="210" y="60" width="40" height="20" as="geometry" />
        </mxCell>
        <mxCell id="AhRn2nykdv37WszCrWZt-22" value="&lt;b&gt;查找25&lt;/b&gt;" style="text;strokeColor=none;align=center;fillColor=none;html=1;verticalAlign=middle;whiteSpace=wrap;rounded=0;" vertex="1" parent="1">
          <mxGeometry x="580" y="60" width="50" height="20" as="geometry" />
        </mxCell>
      </root>
    </mxGraphModel>
  </diagram>
</mxfile>
